<?xml version="1.0" encoding="utf-8"?>
<!-- Generator: Adobe Illustrator 19.2.1, SVG Export Plug-In . SVG Version: 6.00 Build 0)  -->
<svg version="1.1" id="Ebene_1" xmlns="http://www.w3.org/2000/svg" xmlns:xlink="http://www.w3.org/1999/xlink" x="0px" y="0px"
	 viewBox="0 0 1400 1400" style="enable-background:new 0 0 1400 1400;" xml:space="preserve">
<style type="text/css">
	.st0{fill:#BA0C2F;stroke:#000000;stroke-miterlimit:10;}
	.st1{fill:#FFFFFF;}
</style>
<rect x="-2" class="st0" width="1402" height="1402"/>
<g>
	<path class="st1" d="M669,276.4H483.6l32.6,156.8c5.5,23.1,16.7,35.8,42.2,35.8h148.9c248.2,0,295.2,54.1,295.2,237.1
		c0,181.5-70,226.8-295.2,226.8h-95.5l34.3,156.8c4.7,23.1,15.9,35.8,41.3,35.8h17.5c283.3,0,525.2-46.9,525.2-419.4
		C1230,340.1,1028.6,276.4,669,276.4L669,276.4z"/>
	<path class="st1" d="M361,276.4H168l58.1,287.3c5.6,23.1,16.7,35.8,42.2,35.8h193l-58.9-287.3C397.7,289.3,386.4,276.4,361,276.4
		L361,276.4z"/>
</g>
</svg>
